<?xml version="1.0" encoding="utf-8"?>
<!-- Generator: Adobe Illustrator 19.0.0, SVG Export Plug-In . SVG Version: 6.00 Build 0)  -->
<svg version="1.1" id="Layer_1" xmlns="http://www.w3.org/2000/svg" xmlns:xlink="http://www.w3.org/1999/xlink" x="0px" y="0px"
	 viewBox="0 0 450 148" style="enable-background:new 0 0 450 148;" xml:space="preserve">
<style type="text/css">
	.st0{fill:#D01B24;}
	.st1{fill:#1E2346;}
</style>
<g>
	<g>
		<path class="st0" d="M415.5,104.1c-6.4-3-14.5-0.6-18.2,5.4c-3.8,6.2-2.2,14.6,3.6,19c1.6,1.2,3.3,2,5.2,2.5
			c0.8,0.2,1.7,0.2,2.4,0.6c0.6,0.3,0.8,1,0.9,1.6c0.1,0.6,0,1.3,0,1.9c0,0.6-0.1,0.8,0.6,0.6c1.1-0.4,2.2-1,3.2-1.6
			c6.4-4,11.7-11.5,10.2-19.4C422.6,110.1,419.7,106.1,415.5,104.1"/>
		<path class="st1" d="M166.1,54c-2.5-3.1-4-5.5-4-8.6c0-2.7,1.8-6.8,6.8-6.8c6.1,0,6.5,5.8,6.5,6.9v4.4h22.5v-4.2
			c0-17-11.8-28.8-28.7-28.8c-17,0-29.8,12.4-29.8,28.8c0,4.6,1.3,9.4,3.9,14.1C133,68.1,127.3,79.1,127.3,91
			c0,22.1,19.2,40.1,42.8,40.1c8.8,0,16.9-2.1,23.9-6.2l3.4,4.4h28.1L166.1,54z M156.7,77.7l23.3,29.3c-3.2,1.4-6.5,2.1-9.9,2.1
			c-10.8,0-19.8-8.3-19.8-18.2C150.3,85,153.8,80.4,156.7,77.7"/>
		<polygon class="st1" points="97,18.4 121.7,18.4 121.7,129 97,129 97,87.3 53,87.3 53,129 28.3,129 28.3,18.4 53,18.4 53,62.7 
			97,62.7 		"/>
		<path class="st1" d="M344.5,16.1c-31.8,0-57.5,25.7-57.5,57.5c0,31.8,25.7,57.5,57.5,57.5c31.8,0,57.5-25.8,57.5-57.5
			C402,41.8,376.3,16.1,344.5,16.1 M344.5,108.6c-19.3,0-35-15.7-35-35c0-19.3,15.7-35,35-35c19.3,0,35,15.7,35,35
			C379.5,92.9,363.8,108.6,344.5,108.6"/>
		<path class="st1" d="M254.9,108.6c-19.3,0-35-15.7-35-35c0-19.3,15.7-35,35-35c10.3,0,19.5,4.5,26,11.6
			c2.7-7.4,6.7-14.2,11.7-20.1c-10.1-8.7-23.2-14-37.6-14c-31.8,0-57.5,25.7-57.5,57.5c0,1.4,0.1,2.8,0.2,4.2l39.9,50.6
			c5.5,1.8,11.4,2.7,17.5,2.7c14.4,0,27.5-5.3,37.6-14c-5-5.9-9-12.7-11.7-20.1C274.5,104.1,265.2,108.6,254.9,108.6"/>
	</g>
</g>
</svg>
